<svg xmlns="http://www.w3.org/2000/svg" viewBox="0 0 512 512" fill="none">
  <rect width="512" height="512" rx="96" fill="#0a0a0a"/>
  <circle cx="256" cy="256" r="230" fill="#e8702a" opacity="0.12"/>
  <circle cx="256" cy="256" r="216" fill="#0f1b2d"/>
  <rect x="115" y="140" width="282" height="256" rx="88" fill="#1a2035"/>
  <rect x="128" y="152" width="256" height="232" rx="76" fill="#0f1b2d"/>
  <line x1="256" y1="88" x2="256" y2="140" stroke="#e8702a" stroke-width="16" stroke-linecap="round"/>
  <circle cx="256" cy="76" r="18" fill="#e8702a"/>
  <path d="M372 112 L384 148 L420 160 L384 172 L372 208 L360 172 L324 160 L360 148 Z" fill="#e8702a" opacity="0.85"/>
  <rect x="166" y="228" width="70" height="50" rx="18" fill="#e8702a"/>
  <rect x="276" y="228" width="70" height="50" rx="18" fill="#e8702a"/>
  <rect x="178" y="240" width="26" height="16" rx="6" fill="white" opacity="0.55"/>
  <rect x="288" y="240" width="26" height="16" rx="6" fill="white" opacity="0.55"/>
  <path d="M186 320 Q256 352 326 320" stroke="#e8702a" stroke-width="16" stroke-linecap="round" fill="none" opacity="0.9"/>
  <path d="M88 392 Q115 340 166 360 L346 360 Q397 340 424 392 L424 440 Q256 468 88 440 Z" fill="#1a2035"/>
  <text x="256" y="478" text-anchor="middle" fill="white" font-family="Inter, Arial, sans-serif" font-size="0" font-weight="900"/>
</svg>
